<svg xmlns="http://www.w3.org/2000/svg" viewBox="0 0 512 512" width="512" height="512">
  <defs>
    <linearGradient id="cross" x1="0%" y1="0%" x2="100%" y2="100%">
      <stop offset="0%" stop-color="#67E8F9"/>
      <stop offset="35%" stop-color="#14B8A6"/>
      <stop offset="100%" stop-color="#7C3AED"/>
    </linearGradient>
    <linearGradient id="hx" x1="0%" y1="0%" x2="100%" y2="100%">
      <stop offset="0%" stop-color="#2DD4BF"/>
      <stop offset="100%" stop-color="#6366F1"/>
    </linearGradient>
    <filter id="gl"><feGaussianBlur stdDeviation="2" result="b"/><feMerge><feMergeNode in="b"/><feMergeNode in="SourceGraphic"/></feMerge></filter>
  </defs>
  <path d="M256.0 70.0 L417.1 163.0 L417.1 349.0 L256.0 442.0 L94.9 349.0 L94.9 163.0 Z" fill="none" stroke="url(#hx)" stroke-width="1.5" opacity="0.2" stroke-linejoin="round"/>
  <path d="M256.0 84.0 L405.0 170.0 L405.0 342.0 L256.0 428.0 L107.0 342.0 L107.0 170.0 Z" fill="none" stroke="url(#hx)" stroke-width="2.5" opacity="0.38" stroke-linejoin="round"/>
  <path d="M256.0 98.0 L392.8 177.0 L392.8 335.0 L256.0 414.0 L119.2 335.0 L119.2 177.0 Z" fill="none" stroke="url(#hx)" stroke-width="4.5" opacity="0.8" stroke-linejoin="round"/>
  <rect x="228" y="162" width="56" height="188" rx="7" fill="url(#cross)" opacity="0.9"/>
  <rect x="162" y="228" width="188" height="56" rx="7" fill="url(#cross)" opacity="0.9"/>
  <path d="M162 256 L210 256 L228 232 L250 282 L270 230 L288 268 L302 256 L350 256" fill="none" stroke="white" stroke-width="3.5" stroke-linecap="round" stroke-linejoin="round" opacity="0.92"/>
  <circle cx="256.0" cy="70.0" r="4" fill="url(#hx)" opacity="0.65" filter="url(#gl)"/>
  <circle cx="417.1" cy="163.0" r="4" fill="url(#hx)" opacity="0.65" filter="url(#gl)"/>
  <circle cx="417.1" cy="349.0" r="4" fill="url(#hx)" opacity="0.65" filter="url(#gl)"/>
  <circle cx="256.0" cy="442.0" r="4" fill="url(#hx)" opacity="0.65" filter="url(#gl)"/>
  <circle cx="94.9" cy="349.0" r="4" fill="url(#hx)" opacity="0.65" filter="url(#gl)"/>
  <circle cx="94.9" cy="163.0" r="4" fill="url(#hx)" opacity="0.65" filter="url(#gl)"/>
</svg>